<?xml version="1.0" encoding="UTF-8" standalone="no"?>
<!DOCTYPE svg PUBLIC "-//W3C//DTD SVG 1.1//EN"
 "http://www.w3.org/Graphics/SVG/1.1/DTD/svg11.dtd">
<!-- Generated by graphviz version 9.0.0 (20230911.1827)
 -->
<!-- Title: G Pages: 1 -->
<svg width="1510pt" height="220pt"
 viewBox="0.00 0.00 1509.87 219.50" xmlns="http://www.w3.org/2000/svg" xmlns:xlink="http://www.w3.org/1999/xlink">
<g id="graph0" class="graph" transform="scale(1 1) rotate(0) translate(4 215.5)">
<title>G</title>
<polygon fill="white" stroke="none" points="-4,4 -4,-215.5 1505.87,-215.5 1505.87,4 -4,4"/>
<!-- cart&#45;page.component.ts -->
<g id="node1" class="node">
<title>cart&#45;page.component.ts</title>
<ellipse fill="none" stroke="black" cx="107.95" cy="-193.5" rx="98.47" ry="18"/>
<text text-anchor="middle" x="107.95" y="-188.07" font-family="Times New Roman,serif" font-size="14.00">cart&#45;page.component.ts</text>
</g>
<!-- cart&#45;page.component.html -->
<g id="node2" class="node">
<title>cart&#45;page.component.html</title>
<ellipse fill="none" stroke="black" cx="107.95" cy="-105.75" rx="107.95" ry="18"/>
<text text-anchor="middle" x="107.95" y="-100.33" font-family="Times New Roman,serif" font-size="14.00">cart&#45;page.component.html</text>
</g>
<!-- cart&#45;page.component.ts&#45;&gt;cart&#45;page.component.html -->
<g id="edge1" class="edge">
<title>cart&#45;page.component.ts&#45;&gt;cart&#45;page.component.html</title>
<path fill="none" stroke="red" d="M107.95,-175.15C107.95,-163.76 107.95,-148.59 107.95,-135.43"/>
<polygon fill="red" stroke="red" points="111.45,-135.59 107.95,-125.59 104.45,-135.59 111.45,-135.59"/>
<text text-anchor="middle" x="155.95" y="-144.2" font-family="Times New Roman,serif" font-size="14.00">removeFromCart</text>
</g>
<!-- cart&#45;page.spec.ts -->
<g id="node3" class="node">
<title>cart&#45;page.spec.ts</title>
<ellipse fill="none" stroke="black" cx="146.95" cy="-18" rx="74.02" ry="18"/>
<text text-anchor="middle" x="146.95" y="-12.57" font-family="Times New Roman,serif" font-size="14.00">cart&#45;page.spec.ts</text>
</g>
<!-- cart&#45;page.component.html&#45;&gt;cart&#45;page.spec.ts -->
<g id="edge2" class="edge">
<title>cart&#45;page.component.html&#45;&gt;cart&#45;page.spec.ts</title>
<path fill="none" stroke="blue" d="M115.84,-87.4C121.18,-75.66 128.35,-59.91 134.45,-46.48"/>
<polygon fill="blue" stroke="blue" points="137.49,-48.26 138.44,-37.7 131.12,-45.36 137.49,-48.26"/>
<text text-anchor="middle" x="178.95" y="-56.45" font-family="Times New Roman,serif" font-size="14.00">removeFromCart</text>
</g>
<!-- checkout&#45;page.component.ts -->
<g id="node4" class="node">
<title>checkout&#45;page.component.ts</title>
<ellipse fill="none" stroke="black" cx="603.95" cy="-193.5" rx="118.43" ry="18"/>
<text text-anchor="middle" x="603.95" y="-188.07" font-family="Times New Roman,serif" font-size="14.00">checkout&#45;page.component.ts</text>
</g>
<!-- checkout&#45;page.component.html -->
<g id="node5" class="node">
<title>checkout&#45;page.component.html</title>
<ellipse fill="none" stroke="black" cx="603.95" cy="-105.75" rx="127.91" ry="18"/>
<text text-anchor="middle" x="603.95" y="-100.33" font-family="Times New Roman,serif" font-size="14.00">checkout&#45;page.component.html</text>
</g>
<!-- checkout&#45;page.component.ts&#45;&gt;checkout&#45;page.component.html -->
<g id="edge3" class="edge">
<title>checkout&#45;page.component.ts&#45;&gt;checkout&#45;page.component.html</title>
<path fill="none" stroke="red" d="M612.17,-175.26C615.86,-165.5 618.98,-153.03 616.95,-141.75 616.55,-139.55 616.03,-137.31 615.42,-135.07"/>
<polygon fill="red" stroke="red" points="618.76,-134.04 612.3,-125.65 612.12,-136.24 618.76,-134.04"/>
<text text-anchor="middle" x="634.45" y="-144.2" font-family="Times New Roman,serif" font-size="14.00">Order</text>
</g>
<!-- checkout&#45;page.component.ts&#45;&gt;checkout&#45;page.component.html -->
<g id="edge4" class="edge">
<title>checkout&#45;page.component.ts&#45;&gt;checkout&#45;page.component.html</title>
<path fill="none" stroke="red" d="M565.46,-176.05C550.83,-167.24 539.32,-155.39 546.95,-141.75 549.31,-137.53 552.41,-133.76 555.95,-130.4"/>
<polygon fill="red" stroke="red" points="558.03,-133.21 563.66,-124.24 553.66,-127.74 558.03,-133.21"/>
<text text-anchor="middle" x="579.95" y="-144.2" font-family="Times New Roman,serif" font-size="14.00">createOrder</text>
</g>
<!-- checkout&#45;page.spec.ts -->
<g id="node6" class="node">
<title>checkout&#45;page.spec.ts</title>
<ellipse fill="none" stroke="black" cx="625.95" cy="-18" rx="93.98" ry="18"/>
<text text-anchor="middle" x="625.95" y="-12.57" font-family="Times New Roman,serif" font-size="14.00">checkout&#45;page.spec.ts</text>
</g>
<!-- checkout&#45;page.component.html&#45;&gt;checkout&#45;page.spec.ts -->
<g id="edge5" class="edge">
<title>checkout&#45;page.component.html&#45;&gt;checkout&#45;page.spec.ts</title>
<path fill="none" stroke="blue" d="M633.58,-87.95C639.77,-82.95 645.47,-76.86 648.95,-69.75 652.73,-62.02 651.1,-53.53 647.37,-45.74"/>
<polygon fill="blue" stroke="blue" points="650.47,-44.09 642.31,-37.33 644.47,-47.7 650.47,-44.09"/>
<text text-anchor="middle" x="668.45" y="-56.45" font-family="Times New Roman,serif" font-size="14.00">Order</text>
</g>
<!-- checkout&#45;page.component.html&#45;&gt;checkout&#45;page.spec.ts -->
<g id="edge6" class="edge">
<title>checkout&#45;page.component.html&#45;&gt;checkout&#45;page.spec.ts</title>
<path fill="none" stroke="blue" d="M587.22,-87.8C579.56,-77.92 573.31,-65.24 578.95,-54 581,-49.92 583.77,-46.2 586.95,-42.83"/>
<polygon fill="blue" stroke="blue" points="589.25,-45.47 594.39,-36.2 584.59,-40.25 589.25,-45.47"/>
<text text-anchor="middle" x="611.95" y="-56.45" font-family="Times New Roman,serif" font-size="14.00">createOrder</text>
</g>
<!-- food&#45;page.component.ts -->
<g id="node7" class="node">
<title>food&#45;page.component.ts</title>
<ellipse fill="none" stroke="black" cx="345.95" cy="-193.5" rx="102.46" ry="18"/>
<text text-anchor="middle" x="345.95" y="-188.07" font-family="Times New Roman,serif" font-size="14.00">food&#45;page.component.ts</text>
</g>
<!-- food&#45;page.component.html -->
<g id="node8" class="node">
<title>food&#45;page.component.html</title>
<ellipse fill="none" stroke="black" cx="345.95" cy="-105.75" rx="111.94" ry="18"/>
<text text-anchor="middle" x="345.95" y="-100.33" font-family="Times New Roman,serif" font-size="14.00">food&#45;page.component.html</text>
</g>
<!-- food&#45;page.component.ts&#45;&gt;food&#45;page.component.html -->
<g id="edge7" class="edge">
<title>food&#45;page.component.ts&#45;&gt;food&#45;page.component.html</title>
<path fill="none" stroke="red" d="M388.05,-176.83C404.41,-168.13 417.43,-156.15 408.95,-141.75 406.2,-137.08 402.57,-132.98 398.45,-129.4"/>
<polygon fill="red" stroke="red" points="400.76,-126.75 390.62,-123.66 396.62,-132.4 400.76,-126.75"/>
<text text-anchor="middle" x="442.7" y="-144.2" font-family="Times New Roman,serif" font-size="14.00">addToCart</text>
</g>
<!-- food&#45;page.component.ts&#45;&gt;food&#45;page.component.html -->
<g id="edge8" class="edge">
<title>food&#45;page.component.ts&#45;&gt;food&#45;page.component.html</title>
<path fill="none" stroke="red" d="M287.42,-178.43C277.55,-173.43 268.54,-166.66 262.45,-157.5 253.7,-144.35 262.36,-134.05 276.93,-126.27"/>
<polygon fill="red" stroke="red" points="278.24,-129.52 285.85,-122.15 275.3,-123.16 278.24,-129.52"/>
<text text-anchor="middle" x="293.7" y="-144.2" font-family="Times New Roman,serif" font-size="14.00">addToCart</text>
</g>
<!-- food&#45;page.component.ts&#45;&gt;food&#45;page.component.html -->
<g id="edge9" class="edge">
<title>food&#45;page.component.ts&#45;&gt;food&#45;page.component.html</title>
<path fill="none" stroke="red" d="M344.36,-175.12C343.65,-165.33 343.05,-152.86 343.45,-141.75 343.52,-139.69 343.62,-137.57 343.73,-135.43"/>
<polygon fill="red" stroke="red" points="347.21,-135.9 344.36,-125.69 340.23,-135.45 347.21,-135.9"/>
<text text-anchor="middle" x="374.7" y="-144.2" font-family="Times New Roman,serif" font-size="14.00">addToCart</text>
</g>
<!-- food&#45;page.component.html&#45;&gt;cart&#45;page.spec.ts -->
<g id="edge10" class="edge">
<title>food&#45;page.component.html&#45;&gt;cart&#45;page.spec.ts</title>
<path fill="none" stroke="blue" d="M309.26,-88.33C286.72,-78.29 257.22,-65.27 230.95,-54 218.93,-48.85 205.91,-43.37 193.78,-38.31"/>
<polygon fill="blue" stroke="blue" points="195.38,-35.18 184.8,-34.58 192.69,-41.65 195.38,-35.18"/>
<text text-anchor="middle" x="296.7" y="-56.45" font-family="Times New Roman,serif" font-size="14.00">addToCart</text>
</g>
<!-- food&#45;page.component.html&#45;&gt;checkout&#45;page.spec.ts -->
<g id="edge11" class="edge">
<title>food&#45;page.component.html&#45;&gt;checkout&#45;page.spec.ts</title>
<path fill="none" stroke="blue" d="M396.28,-89.3C429.08,-79.24 472.8,-65.83 511.45,-54 529.39,-48.51 548.92,-42.54 566.68,-37.11"/>
<polygon fill="blue" stroke="blue" points="567.49,-40.52 576.03,-34.25 565.44,-33.82 567.49,-40.52"/>
<text text-anchor="middle" x="542.7" y="-56.45" font-family="Times New Roman,serif" font-size="14.00">addToCart</text>
</g>
<!-- food&#45;page.spec.ts -->
<g id="node9" class="node">
<title>food&#45;page.spec.ts</title>
<ellipse fill="none" stroke="black" cx="345.95" cy="-18" rx="78.01" ry="18"/>
<text text-anchor="middle" x="345.95" y="-12.57" font-family="Times New Roman,serif" font-size="14.00">food&#45;page.spec.ts</text>
</g>
<!-- food&#45;page.component.html&#45;&gt;food&#45;page.spec.ts -->
<g id="edge12" class="edge">
<title>food&#45;page.component.html&#45;&gt;food&#45;page.spec.ts</title>
<path fill="none" stroke="blue" d="M345.95,-87.4C345.95,-76.01 345.95,-60.84 345.95,-47.68"/>
<polygon fill="blue" stroke="blue" points="349.45,-47.84 345.95,-37.84 342.45,-47.84 349.45,-47.84"/>
<text text-anchor="middle" x="376.7" y="-56.45" font-family="Times New Roman,serif" font-size="14.00">addToCart</text>
</g>
<!-- login&#45;page.component.ts -->
<g id="node10" class="node">
<title>login&#45;page.component.ts</title>
<ellipse fill="none" stroke="black" cx="1129.95" cy="-193.5" rx="102.46" ry="18"/>
<text text-anchor="middle" x="1129.95" y="-188.07" font-family="Times New Roman,serif" font-size="14.00">login&#45;page.component.ts</text>
</g>
<!-- login&#45;page.component.html -->
<g id="node11" class="node">
<title>login&#45;page.component.html</title>
<ellipse fill="none" stroke="black" cx="1129.95" cy="-105.75" rx="111.94" ry="18"/>
<text text-anchor="middle" x="1129.95" y="-100.33" font-family="Times New Roman,serif" font-size="14.00">login&#45;page.component.html</text>
</g>
<!-- login&#45;page.component.ts&#45;&gt;login&#45;page.component.html -->
<g id="edge13" class="edge">
<title>login&#45;page.component.ts&#45;&gt;login&#45;page.component.html</title>
<path fill="none" stroke="red" d="M1129.95,-175.15C1129.95,-163.76 1129.95,-148.59 1129.95,-135.43"/>
<polygon fill="red" stroke="red" points="1133.45,-135.59 1129.95,-125.59 1126.45,-135.59 1133.45,-135.59"/>
<text text-anchor="middle" x="1148.7" y="-144.2" font-family="Times New Roman,serif" font-size="14.00">submit</text>
</g>
<!-- register.spec.ts -->
<g id="node12" class="node">
<title>register.spec.ts</title>
<ellipse fill="none" stroke="black" cx="1254.95" cy="-18" rx="66.53" ry="18"/>
<text text-anchor="middle" x="1254.95" y="-12.57" font-family="Times New Roman,serif" font-size="14.00">register.spec.ts</text>
</g>
<!-- login&#45;page.component.html&#45;&gt;register.spec.ts -->
<g id="edge14" class="edge">
<title>login&#45;page.component.html&#45;&gt;register.spec.ts</title>
<path fill="none" stroke="blue" d="M1154.65,-87.81C1174.02,-74.52 1201.16,-55.9 1222.32,-41.38"/>
<polygon fill="blue" stroke="blue" points="1224.06,-44.44 1230.33,-35.89 1220.1,-38.66 1224.06,-44.44"/>
<text text-anchor="middle" x="1222.7" y="-56.45" font-family="Times New Roman,serif" font-size="14.00">submit</text>
</g>
<!-- payment&#45;page.component.ts -->
<g id="node13" class="node">
<title>payment&#45;page.component.ts</title>
<ellipse fill="none" stroke="black" cx="874.95" cy="-193.5" rx="115.93" ry="18"/>
<text text-anchor="middle" x="874.95" y="-188.07" font-family="Times New Roman,serif" font-size="14.00">payment&#45;page.component.ts</text>
</g>
<!-- payment&#45;page.component.html -->
<g id="node14" class="node">
<title>payment&#45;page.component.html</title>
<ellipse fill="none" stroke="black" cx="874.95" cy="-105.75" rx="125.41" ry="18"/>
<text text-anchor="middle" x="874.95" y="-100.33" font-family="Times New Roman,serif" font-size="14.00">payment&#45;page.component.html</text>
</g>
<!-- payment&#45;page.component.ts&#45;&gt;payment&#45;page.component.html -->
<g id="edge15" class="edge">
<title>payment&#45;page.component.ts&#45;&gt;payment&#45;page.component.html</title>
<path fill="none" stroke="red" d="M874.95,-175.15C874.95,-163.76 874.95,-148.59 874.95,-135.43"/>
<polygon fill="red" stroke="red" points="878.45,-135.59 874.95,-125.59 871.45,-135.59 878.45,-135.59"/>
<text text-anchor="middle" x="891.45" y="-144.2" font-family="Times New Roman,serif" font-size="14.00">Order</text>
</g>
<!-- payment&#45;page.component.html&#45;&gt;checkout&#45;page.spec.ts -->
<g id="edge16" class="edge">
<title>payment&#45;page.component.html&#45;&gt;checkout&#45;page.spec.ts</title>
<path fill="none" stroke="blue" d="M828.11,-88.62C786.3,-74.22 725.01,-53.12 680.89,-37.92"/>
<polygon fill="blue" stroke="blue" points="682.09,-34.63 671.5,-34.69 679.81,-41.25 682.09,-34.63"/>
<text text-anchor="middle" x="789.45" y="-56.45" font-family="Times New Roman,serif" font-size="14.00">Order</text>
</g>
<!-- register&#45;page.component.ts -->
<g id="node15" class="node">
<title>register&#45;page.component.ts</title>
<ellipse fill="none" stroke="black" cx="1380.95" cy="-193.5" rx="111.44" ry="18"/>
<text text-anchor="middle" x="1380.95" y="-188.07" font-family="Times New Roman,serif" font-size="14.00">register&#45;page.component.ts</text>
</g>
<!-- register&#45;page.component.html -->
<g id="node16" class="node">
<title>register&#45;page.component.html</title>
<ellipse fill="none" stroke="black" cx="1380.95" cy="-105.75" rx="120.92" ry="18"/>
<text text-anchor="middle" x="1380.95" y="-100.33" font-family="Times New Roman,serif" font-size="14.00">register&#45;page.component.html</text>
</g>
<!-- register&#45;page.component.ts&#45;&gt;register&#45;page.component.html -->
<g id="edge17" class="edge">
<title>register&#45;page.component.ts&#45;&gt;register&#45;page.component.html</title>
<path fill="none" stroke="red" d="M1380.95,-175.15C1380.95,-163.76 1380.95,-148.59 1380.95,-135.43"/>
<polygon fill="red" stroke="red" points="1384.45,-135.59 1380.95,-125.59 1377.45,-135.59 1384.45,-135.59"/>
<text text-anchor="middle" x="1399.7" y="-144.2" font-family="Times New Roman,serif" font-size="14.00">submit</text>
</g>
<!-- register&#45;page.component.html&#45;&gt;register.spec.ts -->
<g id="edge18" class="edge">
<title>register&#45;page.component.html&#45;&gt;register.spec.ts</title>
<path fill="none" stroke="blue" d="M1356.06,-87.81C1336.53,-74.52 1309.17,-55.9 1287.84,-41.38"/>
<polygon fill="blue" stroke="blue" points="1290,-38.62 1279.76,-35.89 1286.06,-44.41 1290,-38.62"/>
<text text-anchor="middle" x="1348.7" y="-56.45" font-family="Times New Roman,serif" font-size="14.00">submit</text>
</g>
</g>
</svg>
