<?xml version="1.0" encoding="UTF-8" standalone="no"?>
<!DOCTYPE svg PUBLIC "-//W3C//DTD SVG 1.1//EN"
 "http://www.w3.org/Graphics/SVG/1.1/DTD/svg11.dtd">
<!-- Generated by graphviz version 9.0.0 (20230911.1827)
 -->
<!-- Title: G Pages: 1 -->
<svg width="3329pt" height="116pt"
 viewBox="0.00 0.00 3329.13 116.00" xmlns="http://www.w3.org/2000/svg" xmlns:xlink="http://www.w3.org/1999/xlink">
<g id="graph0" class="graph" transform="scale(1 1) rotate(0) translate(4 112)">
<title>G</title>
<polygon fill="white" stroke="none" points="-4,4 -4,-112 3325.13,-112 3325.13,4 -4,4"/>
<!-- app&#45;routing.module.ts -->
<g id="node1" class="node">
<title>app&#45;routing.module.ts</title>
<ellipse fill="none" stroke="black" cx="1452.55" cy="-90" rx="92.48" ry="18"/>
<text text-anchor="middle" x="1452.55" y="-84.58" font-family="Times New Roman,serif" font-size="14.00">app&#45;routing.module.ts</text>
</g>
<!-- Login -->
<g id="node2" class="node">
<title>Login</title>
<ellipse fill="none" stroke="black" cx="479.55" cy="-18" rx="32.1" ry="18"/>
<text text-anchor="middle" x="479.55" y="-12.57" font-family="Times New Roman,serif" font-size="14.00">Login</text>
</g>
<!-- app&#45;routing.module.ts&#45;&gt;Login -->
<g id="edge1" class="edge">
<title>app&#45;routing.module.ts&#45;&gt;Login</title>
<path fill="none" stroke="black" d="M1386.86,-76.92C1374.81,-75.03 1362.33,-73.28 1350.55,-72 1040.41,-38.3 960.63,-59.53 649.55,-36 605.97,-32.7 556.24,-27.57 521.88,-23.81"/>
<polygon fill="black" stroke="black" points="522.67,-20.37 512.35,-22.75 521.9,-27.33 522.67,-20.37"/>
</g>
<!-- Register -->
<g id="node3" class="node">
<title>Register</title>
<ellipse fill="none" stroke="black" cx="699.55" cy="-18" rx="41.08" ry="18"/>
<text text-anchor="middle" x="699.55" y="-12.57" font-family="Times New Roman,serif" font-size="14.00">Register</text>
</g>
<!-- app&#45;routing.module.ts&#45;&gt;Register -->
<g id="edge2" class="edge">
<title>app&#45;routing.module.ts&#45;&gt;Register</title>
<path fill="none" stroke="black" d="M1386,-77.08C1374.22,-75.21 1362.04,-73.42 1350.55,-72 1128.78,-44.54 862.67,-27.95 751.9,-21.77"/>
<polygon fill="black" stroke="black" points="752.11,-18.27 741.93,-21.22 751.73,-25.26 752.11,-18.27"/>
</g>
<!-- Home -->
<g id="node4" class="node">
<title>Home</title>
<ellipse fill="none" stroke="black" cx="1452.55" cy="-18" rx="33.1" ry="18"/>
<text text-anchor="middle" x="1452.55" y="-12.57" font-family="Times New Roman,serif" font-size="14.00">Home</text>
</g>
<!-- app&#45;routing.module.ts&#45;&gt;Home -->
<g id="edge3" class="edge">
<title>app&#45;routing.module.ts&#45;&gt;Home</title>
<path fill="none" stroke="black" d="M1452.55,-71.7C1452.55,-64.41 1452.55,-55.73 1452.55,-47.54"/>
<polygon fill="black" stroke="black" points="1456.05,-47.62 1452.55,-37.62 1449.05,-47.62 1456.05,-47.62"/>
</g>
<!-- Search -->
<g id="node5" class="node">
<title>Search</title>
<ellipse fill="none" stroke="black" cx="1172.55" cy="-18" rx="36.09" ry="18"/>
<text text-anchor="middle" x="1172.55" y="-12.57" font-family="Times New Roman,serif" font-size="14.00">Search</text>
</g>
<!-- app&#45;routing.module.ts&#45;&gt;Search -->
<g id="edge4" class="edge">
<title>app&#45;routing.module.ts&#45;&gt;Search</title>
<path fill="none" stroke="black" d="M1397.23,-75.17C1343.82,-61.82 1264.06,-41.88 1215.34,-29.7"/>
<polygon fill="black" stroke="black" points="1216.27,-26.32 1205.72,-27.29 1214.57,-33.11 1216.27,-26.32"/>
</g>
<!-- Cart -->
<g id="node6" class="node">
<title>Cart</title>
<ellipse fill="none" stroke="black" cx="2103.55" cy="-18" rx="27" ry="18"/>
<text text-anchor="middle" x="2103.55" y="-12.57" font-family="Times New Roman,serif" font-size="14.00">Cart</text>
</g>
<!-- app&#45;routing.module.ts&#45;&gt;Cart -->
<g id="edge5" class="edge">
<title>app&#45;routing.module.ts&#45;&gt;Cart</title>
<path fill="none" stroke="black" d="M1519,-77.13C1530.5,-75.27 1542.36,-73.48 1553.55,-72 1744.94,-46.7 1975.32,-28.43 2065.1,-21.76"/>
<polygon fill="black" stroke="black" points="2065.35,-25.26 2075.06,-21.03 2064.83,-18.27 2065.35,-25.26"/>
</g>
<!-- Payment -->
<g id="node7" class="node">
<title>Payment</title>
<ellipse fill="none" stroke="black" cx="2728.55" cy="-18" rx="42.58" ry="18"/>
<text text-anchor="middle" x="2728.55" y="-12.57" font-family="Times New Roman,serif" font-size="14.00">Payment</text>
</g>
<!-- app&#45;routing.module.ts&#45;&gt;Payment -->
<g id="edge6" class="edge">
<title>app&#45;routing.module.ts&#45;&gt;Payment</title>
<path fill="none" stroke="black" d="M1517.59,-76.86C1529.51,-74.97 1541.88,-73.24 1553.55,-72 1775.41,-48.41 2474.66,-26.48 2674.64,-20.56"/>
<polygon fill="black" stroke="black" points="2674.58,-24.06 2684.47,-20.27 2674.38,-17.06 2674.58,-24.06"/>
</g>
<!-- Checkout -->
<g id="node8" class="node">
<title>Checkout</title>
<ellipse fill="none" stroke="black" cx="1626.55" cy="-18" rx="46.57" ry="18"/>
<text text-anchor="middle" x="1626.55" y="-12.57" font-family="Times New Roman,serif" font-size="14.00">Checkout</text>
</g>
<!-- app&#45;routing.module.ts&#45;&gt;Checkout -->
<g id="edge7" class="edge">
<title>app&#45;routing.module.ts&#45;&gt;Checkout</title>
<path fill="none" stroke="black" d="M1491.6,-73.29C1519.32,-62.14 1556.48,-47.19 1584.79,-35.8"/>
<polygon fill="black" stroke="black" points="1585.8,-39.17 1593.77,-32.19 1583.18,-32.67 1585.8,-39.17"/>
</g>
<!-- app.module.ts -->
<g id="node9" class="node">
<title>app.module.ts</title>
<ellipse fill="none" stroke="black" cx="1626.55" cy="-90" rx="63.54" ry="18"/>
<text text-anchor="middle" x="1626.55" y="-84.58" font-family="Times New Roman,serif" font-size="14.00">app.module.ts</text>
</g>
<!-- app.module.ts&#45;&gt;Login -->
<g id="edge8" class="edge">
<title>app.module.ts&#45;&gt;Login</title>
<path fill="none" stroke="black" d="M1581.23,-77.05C1572.12,-75.04 1562.58,-73.22 1553.55,-72 1155.07,-18.16 1050.67,-64.02 649.55,-36 605.95,-32.95 556.22,-27.78 521.87,-23.94"/>
<polygon fill="black" stroke="black" points="522.67,-20.51 512.34,-22.87 521.88,-27.47 522.67,-20.51"/>
</g>
<!-- app.module.ts&#45;&gt;Register -->
<g id="edge9" class="edge">
<title>app.module.ts&#45;&gt;Register</title>
<path fill="none" stroke="black" d="M1580.82,-77.12C1571.83,-75.14 1562.43,-73.3 1553.55,-72 1397.52,-49.15 912.9,-27.75 752.04,-21.11"/>
<polygon fill="black" stroke="black" points="752.23,-17.61 742.1,-20.7 751.94,-24.61 752.23,-17.61"/>
</g>
<!-- app.module.ts&#45;&gt;Home -->
<g id="edge10" class="edge">
<title>app.module.ts&#45;&gt;Home</title>
<path fill="none" stroke="black" d="M1590.92,-74.67C1561.25,-62.73 1519.17,-45.8 1489.22,-33.75"/>
<polygon fill="black" stroke="black" points="1490.77,-30.6 1480.19,-30.12 1488.16,-37.1 1490.77,-30.6"/>
</g>
<!-- app.module.ts&#45;&gt;Search -->
<g id="edge11" class="edge">
<title>app.module.ts&#45;&gt;Search</title>
<path fill="none" stroke="black" d="M1579.95,-77.49C1571.21,-75.51 1562.12,-73.59 1553.55,-72 1433.66,-49.75 1290.98,-32.28 1219,-24.09"/>
<polygon fill="black" stroke="black" points="1219.49,-20.62 1209.16,-22.98 1218.7,-27.58 1219.49,-20.62"/>
</g>
<!-- app.module.ts&#45;&gt;Cart -->
<g id="edge12" class="edge">
<title>app.module.ts&#45;&gt;Cart</title>
<path fill="none" stroke="black" d="M1673.14,-77.43C1681.88,-75.46 1690.97,-73.56 1699.55,-72 1833.39,-47.7 1994.11,-30 2065.81,-22.7"/>
<polygon fill="black" stroke="black" points="2065.83,-26.21 2075.43,-21.73 2065.13,-19.25 2065.83,-26.21"/>
</g>
<!-- app.module.ts&#45;&gt;Payment -->
<g id="edge13" class="edge">
<title>app.module.ts&#45;&gt;Payment</title>
<path fill="none" stroke="black" d="M1672.27,-77.05C1681.26,-75.07 1690.66,-73.25 1699.55,-72 1890.64,-45.05 2490.57,-25.88 2674.44,-20.52"/>
<polygon fill="black" stroke="black" points="2674.53,-24.02 2684.43,-20.23 2674.33,-17.02 2674.53,-24.02"/>
</g>
<!-- app.module.ts&#45;&gt;Checkout -->
<g id="edge14" class="edge">
<title>app.module.ts&#45;&gt;Checkout</title>
<path fill="none" stroke="black" d="M1626.55,-71.7C1626.55,-64.41 1626.55,-55.73 1626.55,-47.54"/>
<polygon fill="black" stroke="black" points="1630.05,-47.62 1626.55,-37.62 1623.05,-47.62 1630.05,-47.62"/>
</g>
<!-- auth.guard.ts -->
<g id="node10" class="node">
<title>auth.guard.ts</title>
<ellipse fill="none" stroke="black" cx="58.55" cy="-90" rx="58.55" ry="18"/>
<text text-anchor="middle" x="58.55" y="-84.58" font-family="Times New Roman,serif" font-size="14.00">auth.guard.ts</text>
</g>
<!-- auth.guard.ts&#45;&gt;Login -->
<g id="edge15" class="edge">
<title>auth.guard.ts&#45;&gt;Login</title>
<path fill="none" stroke="black" d="M101.94,-77.49C110.09,-75.52 118.55,-73.6 126.55,-72 237.77,-49.8 370.38,-32.26 436.95,-24.05"/>
<polygon fill="black" stroke="black" points="437.2,-27.55 446.71,-22.86 436.36,-20.6 437.2,-27.55"/>
</g>
<!-- cart&#45;page.component.ts -->
<g id="node11" class="node">
<title>cart&#45;page.component.ts</title>
<ellipse fill="none" stroke="black" cx="2367.55" cy="-90" rx="98.47" ry="18"/>
<text text-anchor="middle" x="2367.55" y="-84.58" font-family="Times New Roman,serif" font-size="14.00">cart&#45;page.component.ts</text>
</g>
<!-- cart&#45;page.component.ts&#45;&gt;Cart -->
<g id="edge16" class="edge">
<title>cart&#45;page.component.ts&#45;&gt;Cart</title>
<path fill="none" stroke="black" d="M2313.17,-74.58C2261.1,-60.77 2184.03,-40.34 2139.29,-28.48"/>
<polygon fill="black" stroke="black" points="2140.41,-25.15 2129.85,-25.97 2138.62,-31.92 2140.41,-25.15"/>
</g>
<!-- checkout&#45;page.component.ts -->
<g id="node12" class="node">
<title>checkout&#45;page.component.ts</title>
<ellipse fill="none" stroke="black" cx="2602.55" cy="-90" rx="118.43" ry="18"/>
<text text-anchor="middle" x="2602.55" y="-84.58" font-family="Times New Roman,serif" font-size="14.00">checkout&#45;page.component.ts</text>
</g>
<!-- checkout&#45;page.component.ts&#45;&gt;Cart -->
<g id="edge17" class="edge">
<title>checkout&#45;page.component.ts&#45;&gt;Cart</title>
<path fill="none" stroke="black" d="M2517.62,-77.09C2407.57,-61.65 2220.43,-35.4 2140.99,-24.25"/>
<polygon fill="black" stroke="black" points="2141.96,-20.85 2131.57,-22.93 2140.99,-27.79 2141.96,-20.85"/>
</g>
<!-- checkout&#45;page.component.ts&#45;&gt;Payment -->
<g id="edge18" class="edge">
<title>checkout&#45;page.component.ts&#45;&gt;Payment</title>
<path fill="none" stroke="black" d="M2632.73,-72.23C2651.12,-62.02 2674.69,-48.92 2693.85,-38.28"/>
<polygon fill="black" stroke="black" points="2695.33,-41.46 2702.37,-33.54 2691.93,-35.34 2695.33,-41.46"/>
</g>
<!-- checkout&#45;page.component.ts&#45;&gt;Checkout -->
<g id="edge19" class="edge">
<title>checkout&#45;page.component.ts&#45;&gt;Checkout</title>
<path fill="none" stroke="black" d="M2518.3,-76.96C2503.73,-75.12 2488.72,-73.38 2474.55,-72 2178.18,-43.09 1821.93,-26.82 1684.51,-21.23"/>
<polygon fill="black" stroke="black" points="1684.71,-17.73 1674.57,-20.83 1684.42,-24.73 1684.71,-17.73"/>
</g>
<!-- food&#45;page.component.ts -->
<g id="node13" class="node">
<title>food&#45;page.component.ts</title>
<ellipse fill="none" stroke="black" cx="1810.55" cy="-90" rx="102.46" ry="18"/>
<text text-anchor="middle" x="1810.55" y="-84.58" font-family="Times New Roman,serif" font-size="14.00">food&#45;page.component.ts</text>
</g>
<!-- food&#45;page.component.ts&#45;&gt;Cart -->
<g id="edge20" class="edge">
<title>food&#45;page.component.ts&#45;&gt;Cart</title>
<path fill="none" stroke="black" d="M1869.49,-74.92C1928.59,-60.8 2017.71,-39.51 2067.19,-27.69"/>
<polygon fill="black" stroke="black" points="2067.9,-31.11 2076.82,-25.39 2066.28,-24.31 2067.9,-31.11"/>
</g>
<!-- home.component.ts -->
<g id="node14" class="node">
<title>home.component.ts</title>
<ellipse fill="none" stroke="black" cx="1257.55" cy="-90" rx="84.5" ry="18"/>
<text text-anchor="middle" x="1257.55" y="-84.58" font-family="Times New Roman,serif" font-size="14.00">home.component.ts</text>
</g>
<!-- home.component.ts&#45;&gt;Home -->
<g id="edge21" class="edge">
<title>home.component.ts&#45;&gt;Home</title>
<path fill="none" stroke="black" d="M1299.38,-73.98C1333.67,-61.68 1381.76,-44.41 1414.87,-32.53"/>
<polygon fill="black" stroke="black" points="1415.82,-35.9 1424.05,-29.23 1413.46,-29.31 1415.82,-35.9"/>
</g>
<!-- home.component.ts&#45;&gt;Search -->
<g id="edge22" class="edge">
<title>home.component.ts&#45;&gt;Search</title>
<path fill="none" stroke="black" d="M1236.97,-72.05C1225.7,-62.77 1211.59,-51.15 1199.45,-41.15"/>
<polygon fill="black" stroke="black" points="1201.74,-38.51 1191.8,-34.85 1197.29,-43.91 1201.74,-38.51"/>
</g>
<!-- login&#45;page.component.ts -->
<g id="node15" class="node">
<title>login&#45;page.component.ts</title>
<ellipse fill="none" stroke="black" cx="237.55" cy="-90" rx="102.46" ry="18"/>
<text text-anchor="middle" x="237.55" y="-84.58" font-family="Times New Roman,serif" font-size="14.00">login&#45;page.component.ts</text>
</g>
<!-- login&#45;page.component.ts&#45;&gt;Login -->
<g id="edge23" class="edge">
<title>login&#45;page.component.ts&#45;&gt;Login</title>
<path fill="none" stroke="black" d="M289.17,-74.07C334.46,-60.97 399.36,-42.2 440.47,-30.3"/>
<polygon fill="black" stroke="black" points="441.31,-33.71 449.94,-27.56 439.36,-26.98 441.31,-33.71"/>
</g>
<!-- payment&#45;page.component.ts -->
<g id="node16" class="node">
<title>payment&#45;page.component.ts</title>
<ellipse fill="none" stroke="black" cx="3103.55" cy="-90" rx="115.93" ry="18"/>
<text text-anchor="middle" x="3103.55" y="-84.58" font-family="Times New Roman,serif" font-size="14.00">payment&#45;page.component.ts</text>
</g>
<!-- payment&#45;page.component.ts&#45;&gt;Payment -->
<g id="edge24" class="edge">
<title>payment&#45;page.component.ts&#45;&gt;Payment</title>
<path fill="none" stroke="black" d="M3031.25,-75.5C2956.86,-61.62 2842.97,-40.36 2778.18,-28.26"/>
<polygon fill="black" stroke="black" points="2779.02,-24.86 2768.55,-26.47 2777.74,-31.74 2779.02,-24.86"/>
</g>
<!-- register&#45;page.component.ts -->
<g id="node17" class="node">
<title>register&#45;page.component.ts</title>
<ellipse fill="none" stroke="black" cx="699.55" cy="-90" rx="111.44" ry="18"/>
<text text-anchor="middle" x="699.55" y="-84.58" font-family="Times New Roman,serif" font-size="14.00">register&#45;page.component.ts</text>
</g>
<!-- register&#45;page.component.ts&#45;&gt;Register -->
<g id="edge25" class="edge">
<title>register&#45;page.component.ts&#45;&gt;Register</title>
<path fill="none" stroke="black" d="M699.55,-71.7C699.55,-64.41 699.55,-55.73 699.55,-47.54"/>
<polygon fill="black" stroke="black" points="703.05,-47.62 699.55,-37.62 696.05,-47.62 703.05,-47.62"/>
</g>
<!-- header.component.ts -->
<g id="node18" class="node">
<title>header.component.ts</title>
<ellipse fill="none" stroke="black" cx="2019.55" cy="-90" rx="88.49" ry="18"/>
<text text-anchor="middle" x="2019.55" y="-84.58" font-family="Times New Roman,serif" font-size="14.00">header.component.ts</text>
</g>
<!-- header.component.ts&#45;&gt;Cart -->
<g id="edge26" class="edge">
<title>header.component.ts&#45;&gt;Cart</title>
<path fill="none" stroke="black" d="M2039.88,-72.05C2051.53,-62.35 2066.23,-50.1 2078.57,-39.82"/>
<polygon fill="black" stroke="black" points="2080.46,-42.8 2085.9,-33.71 2075.98,-37.42 2080.46,-42.8"/>
</g>
<!-- paypal&#45;button.component.ts -->
<g id="node19" class="node">
<title>paypal&#45;button.component.ts</title>
<ellipse fill="none" stroke="black" cx="2854.55" cy="-90" rx="115.43" ry="18"/>
<text text-anchor="middle" x="2854.55" y="-84.58" font-family="Times New Roman,serif" font-size="14.00">paypal&#45;button.component.ts</text>
</g>
<!-- paypal&#45;button.component.ts&#45;&gt;Cart -->
<g id="edge27" class="edge">
<title>paypal&#45;button.component.ts&#45;&gt;Cart</title>
<path fill="none" stroke="black" d="M2771.58,-77.12C2757.57,-75.28 2743.15,-73.5 2729.55,-72 2507.36,-47.5 2239.7,-28.26 2141.79,-21.56"/>
<polygon fill="black" stroke="black" points="2142.17,-18.08 2131.95,-20.89 2141.69,-25.06 2142.17,-18.08"/>
</g>
<!-- paypal&#45;button.component.ts&#45;&gt;Payment -->
<g id="edge28" class="edge">
<title>paypal&#45;button.component.ts&#45;&gt;Payment</title>
<path fill="none" stroke="black" d="M2824.37,-72.23C2805.98,-62.02 2782.41,-48.92 2763.25,-38.28"/>
<polygon fill="black" stroke="black" points="2765.17,-35.34 2754.73,-33.54 2761.77,-41.46 2765.17,-35.34"/>
</g>
<!-- search.component.ts -->
<g id="node20" class="node">
<title>search.component.ts</title>
<ellipse fill="none" stroke="black" cx="916.55" cy="-90" rx="87.99" ry="18"/>
<text text-anchor="middle" x="916.55" y="-84.58" font-family="Times New Roman,serif" font-size="14.00">search.component.ts</text>
</g>
<!-- search.component.ts&#45;&gt;Search -->
<g id="edge29" class="edge">
<title>search.component.ts&#45;&gt;Search</title>
<path fill="none" stroke="black" d="M967.74,-75C1015.52,-61.94 1085.97,-42.67 1130.54,-30.49"/>
<polygon fill="black" stroke="black" points="1131.38,-33.89 1140.1,-27.87 1129.53,-27.13 1131.38,-33.89"/>
</g>
<!-- cart.service.ts -->
<g id="node21" class="node">
<title>cart.service.ts</title>
<ellipse fill="none" stroke="black" cx="2188.55" cy="-90" rx="62.04" ry="18"/>
<text text-anchor="middle" x="2188.55" y="-84.58" font-family="Times New Roman,serif" font-size="14.00">cart.service.ts</text>
</g>
<!-- cart.service.ts&#45;&gt;Cart -->
<g id="edge30" class="edge">
<title>cart.service.ts&#45;&gt;Cart</title>
<path fill="none" stroke="black" d="M2168.83,-72.76C2156.92,-62.95 2141.6,-50.34 2128.8,-39.8"/>
<polygon fill="black" stroke="black" points="2131.13,-37.18 2121.18,-33.52 2126.68,-42.58 2131.13,-37.18"/>
</g>
<!-- food.service.ts -->
<g id="node22" class="node">
<title>food.service.ts</title>
<ellipse fill="none" stroke="black" cx="1088.55" cy="-90" rx="66.03" ry="18"/>
<text text-anchor="middle" x="1088.55" y="-84.58" font-family="Times New Roman,serif" font-size="14.00">food.service.ts</text>
</g>
<!-- food.service.ts&#45;&gt;Search -->
<g id="edge31" class="edge">
<title>food.service.ts&#45;&gt;Search</title>
<path fill="none" stroke="black" d="M1108.46,-72.41C1119.59,-63.13 1133.62,-51.44 1145.71,-41.36"/>
<polygon fill="black" stroke="black" points="1147.9,-44.1 1153.34,-35.01 1143.42,-38.72 1147.9,-44.1"/>
</g>
<!-- user.service.ts -->
<g id="node23" class="node">
<title>user.service.ts</title>
<ellipse fill="none" stroke="black" cx="421.55" cy="-90" rx="63.54" ry="18"/>
<text text-anchor="middle" x="421.55" y="-84.58" font-family="Times New Roman,serif" font-size="14.00">user.service.ts</text>
</g>
<!-- user.service.ts&#45;&gt;Login -->
<g id="edge32" class="edge">
<title>user.service.ts&#45;&gt;Login</title>
<path fill="none" stroke="black" d="M435.59,-72.05C442.7,-63.47 451.47,-52.89 459.3,-43.44"/>
<polygon fill="black" stroke="black" points="461.78,-45.93 465.47,-35.99 456.39,-41.46 461.78,-45.93"/>
</g>
<!-- user.service.ts&#45;&gt;Register -->
<g id="edge33" class="edge">
<title>user.service.ts&#45;&gt;Register</title>
<path fill="none" stroke="black" d="M467.77,-77.36C519.3,-64.39 602.14,-43.53 653.57,-30.58"/>
<polygon fill="black" stroke="black" points="654.36,-33.99 663.21,-28.15 652.65,-27.2 654.36,-33.99"/>
</g>
<!-- urls.ts -->
<g id="node24" class="node">
<title>urls.ts</title>
<ellipse fill="none" stroke="black" cx="536.55" cy="-90" rx="33.1" ry="18"/>
<text text-anchor="middle" x="536.55" y="-84.58" font-family="Times New Roman,serif" font-size="14.00">urls.ts</text>
</g>
<!-- urls.ts&#45;&gt;Login -->
<g id="edge34" class="edge">
<title>urls.ts&#45;&gt;Login</title>
<path fill="none" stroke="black" d="M523.61,-73.12C516.55,-64.43 507.63,-53.49 499.68,-43.72"/>
<polygon fill="black" stroke="black" points="502.42,-41.54 493.39,-35.99 496.99,-45.96 502.42,-41.54"/>
</g>
<!-- urls.ts&#45;&gt;Register -->
<g id="edge35" class="edge">
<title>urls.ts&#45;&gt;Register</title>
<path fill="none" stroke="black" d="M562.02,-78.06C588.45,-66.71 630.12,-48.82 660.67,-35.7"/>
<polygon fill="black" stroke="black" points="661.77,-39.03 669.58,-31.87 659.01,-32.6 661.77,-39.03"/>
</g>
<!-- urls.ts&#45;&gt;Search -->
<g id="edge36" class="edge">
<title>urls.ts&#45;&gt;Search</title>
<path fill="none" stroke="black" d="M561.63,-77.69C567.41,-75.48 573.61,-73.41 579.55,-72 778.11,-24.92 1023.11,-18.93 1124.82,-18.66"/>
<polygon fill="black" stroke="black" points="1124.7,-22.16 1134.7,-18.65 1124.7,-15.16 1124.7,-22.16"/>
</g>
<!-- Order.ts -->
<g id="node25" class="node">
<title>Order.ts</title>
<ellipse fill="none" stroke="black" cx="3279.55" cy="-90" rx="41.58" ry="18"/>
<text text-anchor="middle" x="3279.55" y="-84.58" font-family="Times New Roman,serif" font-size="14.00">Order.ts</text>
</g>
<!-- Order.ts&#45;&gt;Payment -->
<g id="edge37" class="edge">
<title>Order.ts&#45;&gt;Payment</title>
<path fill="none" stroke="black" d="M3248.56,-77.49C3242.02,-75.39 3235.12,-73.42 3228.55,-72 3068.61,-37.3 2874.77,-25 2782.46,-20.9"/>
<polygon fill="black" stroke="black" points="2782.84,-17.41 2772.69,-20.48 2782.54,-24.41 2782.84,-17.41"/>
</g>
</g>
</svg>
